<svg width="16" height="16" viewBox="0 0 16 16" fill="none" xmlns="http://www.w3.org/2000/svg">
<path d="M8 5.33333C6.55467 5.33333 5.33333 6.55467 5.33333 8C5.33333 9.44533 6.55467 10.6667 8 10.6667C9.44533 10.6667 10.6667 9.44533 10.6667 8C10.6667 6.55467 9.44533 5.33333 8 5.33333ZM8 9.33333C7.29 9.33333 6.66667 8.71 6.66667 8C6.66667 7.29 7.29 6.66667 8 6.66667C8.71 6.66667 9.33333 7.29 9.33333 8C9.33333 8.71 8.71 9.33333 8 9.33333Z" fill="#901C1C"/>
<path d="M13.3333 3.33333H11.6093L9.80467 1.52867C9.74286 1.46664 9.6694 1.41745 9.58851 1.38392C9.50762 1.3504 9.4209 1.33321 9.33333 1.33333H6.66667C6.5791 1.33321 6.49238 1.3504 6.41149 1.38392C6.3306 1.41745 6.25714 1.46664 6.19533 1.52867L4.39067 3.33333H2.66667C1.93133 3.33333 1.33333 3.93133 1.33333 4.66667V12C1.33333 12.7353 1.93133 13.3333 2.66667 13.3333H13.3333C14.0687 13.3333 14.6667 12.7353 14.6667 12V4.66667C14.6667 3.93133 14.0687 3.33333 13.3333 3.33333ZM2.66667 12V4.66667H4.66667C4.844 4.66667 5.01333 4.59667 5.138 4.47133L6.94267 2.66667H9.05733L10.862 4.47133C10.9238 4.53336 10.9973 4.58255 11.0782 4.61608C11.159 4.6496 11.2458 4.66679 11.3333 4.66667H13.3333L13.3347 12H2.66667Z" fill="#901C1C"/>
</svg>
